<?xml version="1.0" encoding="UTF-8"?><svg xmlns="http://www.w3.org/2000/svg" xmlns:xlink="http://www.w3.org/1999/xlink" height="219.9" preserveAspectRatio="xMidYMid meet" version="1.0" viewBox="-0.2 -11.3 507.6 219.9" width="507.6" zoomAndPan="magnify"><g data-name="27 sable"><g><g id="change1_1"><path d="M431.54,198.69c-62.62-8.17-81.92-43.39-87.25-72.72H340.4L336,144.45l.37.16-2.89,12s-14.93.35-26.8.35c0,.27.1.53.16.79a.79.79,0,0,1-1.52.42,11.8,11.8,0,0,1-.26-1.21c-2.28,0-4.4,0-6.23-.06,0,.29.1.57.16.85a.78.78,0,0,1-1.51.42,11.74,11.74,0,0,1-.28-1.31c-2.92-.09-4.8-.25-4.82-.5-1.5-15.78,8.45-19.16,19.26-18.39a44.53,44.53,0,0,0,.09-5.39c-.1-2.35-.18-4.52-.25-6.57H294.3l-24.08,52.51-.26.77s-17.72.42-32.14.52a11.18,11.18,0,0,0,.25,1.5.79.79,0,0,1-1.52.42,13.71,13.71,0,0,1-.37-1.91H230a11.26,11.26,0,0,0,.24,1.49.78.78,0,0,1-1.51.42,13.87,13.87,0,0,1-.38-1.92c-5.17-.05-8.7-.2-8.73-.52-1.75-15.07,9.35-18.71,22-18.21l5-15s-11.35-3.22-13.47-20H199.84c-.84,15.76-4.55,41.93-11.85,53.64,0,0-22.74.6-38.61.68.05.32.11.65.18,1a.78.78,0,0,1-1.51.42,13.41,13.41,0,0,1-.3-1.4c-2.28,0-4.38,0-6.22,0,.05.33.11.67.19,1a.79.79,0,0,1-1.52.42,14.15,14.15,0,0,1-.3-1.44c-3.4-.07-5.53-.21-5.56-.45-1.78-15.42,9.77-19,22.61-18.43-7.95-11-14.63-21.2-20.25-30.55a66.27,66.27,0,0,1-23.59,4.62L99,161.31s-19.8.38-34.51.36a11.62,11.62,0,0,0,.27,1.85.78.78,0,0,1-1.51.42,12.37,12.37,0,0,1-.41-2.28c-2.25,0-4.34,0-6.2,0a11.59,11.59,0,0,0,.28,1.91.78.78,0,0,1-1.51.42,12.51,12.51,0,0,1-.42-2.37c-3.71-.09-6.08-.25-6.11-.51C46.87,144,61.28,141.42,75.65,143a30.68,30.68,0,0,0,2.17-7.49c.6-3.58,1.16-6.8,1.67-9.64-15.5-9.65-26.3-25.23-26.3-40.48a30.8,30.8,0,0,1,.37-4.76c-.32-.07-.64-.13-1-.22L39.24,76.79A21.92,21.92,0,0,1,24.6,63.85L18.1,47.79a7.81,7.81,0,0,1,0-5.95C5.34,31.6,1.3,14.23,0,4.59A4.06,4.06,0,0,1,5.7.35l30,13.13h46l.38.67L113.54.35a4.06,4.06,0,0,1,5.66,4.24C117.84,15,113.26,34.35,98,44.1a7.77,7.77,0,0,1-.38,3.24,92,92,0,0,1,10.86-1s0,0,0,0h.7c1,0,1.9,0,2.86,0h.42c9.79-.31,23.18-2.47,41.08-8.48,4.05-1.74,8.27-3.82,13-5.69,0,0,19.91-8,19.91-8,76.5-35.36,95.35-23.65,141.36-4.86,16.27,6.64,27.51,21.08,35,39.06l.49-.43c43,104.77,100.6,73.76,107.67,69.46a74.22,74.22,0,0,1-3.3,9.39,31.39,31.39,0,0,1-12.41,14.51l2.19-.28,9.86-.67c9.85-.67,32.47-19.76,32.47-19.76S507.45,208.59,431.54,198.69ZM471.32,125a7.12,7.12,0,0,1-.35,2.29c.47-.29.72-.46.72-.46Z" fill="#db2828"/></g><g id="change2_1"><path d="M82.2,111.56l37.58,11.67L99,161.31s-50,.95-50.12-.25C46.87,144,61.28,141.42,75.65,143a30.68,30.68,0,0,0,2.17-7.49C80.37,120.31,82.2,111.56,82.2,111.56ZM343.93,111,311,107.46s.1,9.23.75,25.08a44.53,44.53,0,0,1-.09,5.39c-10.81-.77-20.76,2.61-19.26,18.39.11,1.2,41.1.25,41.1.25l2.89-12-.37-.16Z" fill="inherit"/></g><g id="change3_1"><path d="M270.22,178.48l-.26.77s-50.22,1.2-50.36,0c-1.75-15.07,9.35-18.71,22-18.21l5-15s-11.35-3.22-13.47-20H146.27A64.41,64.41,0,0,1,112,135.46c-30.69,0-58.84-25.49-58.84-50.12S81.34,46.24,112,46.24c21.37,0,39.91,9.7,49.21,23.91l26-45.51c75.54-35.1,94.15-23.47,139.58-4.83S380.39,126,380.39,126H294.3Z" fill="#d42b37"/></g><g id="change2_2"><path d="M363,58.81c-3.42.55-6.11-.42-9.37-1.73a37,37,0,0,1-15.74-11.75c-4-5.28-6.57-11.46-6.5-18.07-6.64,1.65-13.62.36-20.29-1.13-4.94-1.11-9.95-2.36-14.26-5s-8.17-6.95-8.8-11.95a37.42,37.42,0,0,1-28.45,12.41c-10.68-.24-20.44-4.58-27.13-12.87a28.71,28.71,0,0,1-14.44,16.86c-6.82,3.39-14.7,4.4-21.89,1.88A50.31,50.31,0,0,1,179.93,59c-1.44,1.29-3.29,2.8-5.2,3.24l.15.62A12,12,0,0,1,179,66.43,40.77,40.77,0,0,1,184.12,75,30.52,30.52,0,0,1,187,88.49a21.38,21.38,0,0,1-2.53,9.4,18.8,18.8,0,0,1,3.63,1.19c5.87,2.63,9.94,8.56,11.56,14.92S198,163.57,188,179.61c0,0-53.51,1.4-53.65.19-1.78-15.42,9.77-19,22.61-18.43C100.37,82.93,108,47.36,108.47,46.28c10,.2,24.6-1.65,45.06-8.51,4.05-1.74,8.27-3.82,13-5.69,0,0,19.91-8,19.91-8,76.5-35.36,95.35-23.65,141.36-4.86C344.22,25.92,355.52,40.58,363,58.81Z" fill="inherit"/></g><g id="change2_3"><path d="M471.69,126.85s-62.51,42.78-108.39-69c0,0-21.74,17.9-20.8,50.57.89,30.73,13.14,80.37,89,90.27s68.24-68.19,68.24-68.19-22.62,19.09-32.47,19.76l-9.86.67-2.19.28a31.39,31.39,0,0,0,12.41-14.51c4-9.85,3.65-11.68,3.65-11.68" fill="inherit"/></g><g id="change4_1"><path d="M119.2,4.59C117.84,15,113.26,34.35,98,44.1h0a7.8,7.8,0,0,1-.53,3.69L90.89,64A21.89,21.89,0,0,1,76.48,76.86L64.14,80.3a21.9,21.9,0,0,1-11.53.06L39.24,76.79A21.92,21.92,0,0,1,24.6,63.85L18.1,47.79a7.81,7.81,0,0,1,0-5.95C5.34,31.6,1.3,14.23,0,4.59A4.06,4.06,0,0,1,5.7.35l30,13.13h46l.38.67L113.54.35A4.06,4.06,0,0,1,119.2,4.59Z" fill="#ffc120"/></g><g id="change4_2"><path d="M134.16,129.25a45.45,45.45,0,0,1-8.59-1.2,21.93,21.93,0,0,1-4.57,2.16,19.12,19.12,0,0,1-7.54.48,44.44,44.44,0,0,1-9.68-2.08,18.15,18.15,0,0,1,7.43-4.58c.52-.17,1.06-.32,1.59-.45-.75-.35-1.49-.71-2.23-1.09-4.4,1.62-18.24,5.49-31.66-3.78,0,0,12-3.73,19.23-4.7-.54-.55-1.09-1.1-1.62-1.66-3.21,1.5-16.18,5.67-38.23-14,0,0,17.21-4.8,31.92,6.5l-2.14-3c-.43-.64-.92-1.23-1.31-1.9l-1.19-2-1.45-2.42a2.6,2.6,0,0,1-1,.33c-2.67.44-5.69-.69-8.19-1.5-2.25-.74-4.62-1.55-6.14-3.36,0-.59.72-.86,1.31-.94a25.44,25.44,0,0,1,8.57.27,10.75,10.75,0,0,1,2.6.81,6.66,6.66,0,0,1,.64.38c-1-1.9-1.89-3.8-2.85-5.68.91,1.36,1.8,2.74,2.69,4.1a12.7,12.7,0,0,1,0-2,25.63,25.63,0,0,1,1.82-8.38c.22-.55.66-1.2,1.24-1,1.38,1.92,1.59,4.41,1.76,6.77.18,2.62.54,5.83-.54,8.31a1.88,1.88,0,0,1-.9,1.08L86.89,97l1.39,1.79c.45.59,1,1.12,1.49,1.69l2.73,3c-10.36-20.77,8.85-43.91,8.85-43.91,8.21,29.84.72,45.37-2.27,50.08,1.25,1,2.52,2,3.76,3,.61.54,1.22,1.08,1.84,1.61-.21-.81-.41-1.71-.59-2.72-.86-5.08,4.84-23.36,4.84-23.36,9.58,13.87,5.12,28.19,3.62,32.07,1.44,1,2.92,1.87,4.45,2.71a14.56,14.56,0,0,1,2.18.12,19.27,19.27,0,0,1,.5-16.62,43.84,43.84,0,0,1,4.89,8.61,19.39,19.39,0,0,1,1.81,7.34,20.93,20.93,0,0,1-.6,4.59A45.19,45.19,0,0,0,134.16,129.25ZM318,83.68a12.12,12.12,0,0,0-11.13,6.37,8.61,8.61,0,0,0-1,6.31c.69,2.48,2.79,4,5.12,4.82,2.75,1,6.13,1,8.46-1,2.09-1.78,3.34-5.25,1-7.3a1.52,1.52,0,0,0-2.57,1.06c-.11,1.51-.76,3.06-2.35,3.46a6,6,0,0,1-5-1.23c-1.87-1.76.15-5,1.63-6.41,5.74-5.58,16.1,1,17.21,7.74a8.91,8.91,0,0,1-3.05,8.09,13.77,13.77,0,0,1-7.87,2.78c-8.59.64-16-4.46-23.47-7.88-8.4-3.82-17.9-8.62-27.19-6.33a23.19,23.19,0,0,0-11.93-.55c-6.07.29-12.07,2.86-17.7,5.35-4.72,2.09-9.32,4.43-14,6.61a26.49,26.49,0,0,1-10.58,2.86c-5.71.14-12.36-2-13.27-8.46-1-7.44,8.85-14.84,15.65-11.35,2.11,1.08,4.82,4.45,3.72,6.87-.71,1.56-3.17,2.05-4.69,2-2.06,0-3.06-1.65-3.19-3.56a1.53,1.53,0,0,0-2.58-1.06c-2.13,1.85-1.3,4.75.34,6.66,1.82,2.11,4.64,2.53,7.27,2.11,4.48-.72,7.94-4.08,7-8.8a11.88,11.88,0,0,0-8.16-8.66c-5.06-1.51-10.39.48-14.31,3.74a14.19,14.19,0,0,0-5.27,12.79,13.2,13.2,0,0,0,6.42,9.53,19.88,19.88,0,0,0,11.21,2.45c4.78-.29,9-2,13.27-4.19,3.09-1.6,6.16-3.27,9.18-5,2.72-1.56,5.39-3.17,8.22-4.52a28.52,28.52,0,0,0-3.92,3.77,34.22,34.22,0,0,0-7.79,22.06.7.7,0,0,0,1.36.18c1.35-6,1.92-12.26,5.62-17.45a25.51,25.51,0,0,1,12.94-9.4c8-2.52,17.37.37,23.07,6.46a16,16,0,0,1,4.59,9.71,15.06,15.06,0,0,1-4.43,11,18.22,18.22,0,0,1-12.06,5.32c-4.37.22-9.21-1.18-10.85-5.69-1.8-4.93,2.13-10.89,7.58-10.48,2.8.21,3.94,2.27,4.88,4.63,1.12,2.8-2.68,5.16-5.07,4.15-.74-.31-1.38.77-.63,1.09,5.76,2.43,12.32-3.86,9.65-9.7-3.35-7.34-13.46-7.17-18.57-1.92a13.63,13.63,0,0,0-.23,18.77c3.82,4.15,9.85,5.16,15.3,4.4-1.61,1.59-3.21,3.19-4.78,4.82-2.62,2.73-5.91,5.52-7.68,8.92a9.88,9.88,0,0,0,.6,10.52,8.29,8.29,0,0,0,5.78,3.81,17.6,17.6,0,0,0,6.31,0,8.2,8.2,0,0,0,5.36-3.16,8.88,8.88,0,0,0,1.78-5.48c-.15-3-1.8-6-4.85-6.88s-7.61,2.35-6.3,5.84a1.23,1.23,0,0,0,2.22.29c.58-1,.86-2.32,1.78-3.09a2.37,2.37,0,0,1,3.19.29,4.86,4.86,0,0,1,1.46,5.11c-.46,1.49-1.57,1.9-2.83,2.56a8.33,8.33,0,0,1-4.06,1c-2.77,0-5.55-2.08-6-4.67-.39-2.34,1.06-4.59,2.63-6.15,2.34-2.32,4.63-4.68,6.84-7.11,2.38-2.63,4.64-5.4,6.92-8.12.76-.92,1.53-1.82,2.27-2.75a22.18,22.18,0,0,0,6.43-7.11A18.55,18.55,0,0,0,284.35,109a25,25,0,0,0-12.67-13.3c9.5-.5,18.87,6.23,26.82,10.57,4.56,2.49,9.25,5.25,14.45,6.11a22.34,22.34,0,0,0,11.58-.86,13.92,13.92,0,0,0,8.31-7.85,13.42,13.42,0,0,0-2.11-13.19A17.45,17.45,0,0,0,318,83.68ZM248.16,60.15a69.38,69.38,0,0,1,4.36,29.34,72.4,72.4,0,0,0,3.93-15.12,76.12,76.12,0,0,0,.63-16.07,98.25,98.25,0,0,0-7.92-32l-.08-.2a9.23,9.23,0,1,0-15.54,9.59A84.45,84.45,0,0,1,248.16,60.15ZM211.08,54.6a18.33,18.33,0,0,1,10.42,2.14,32.55,32.55,0,0,1,9.76,8.3,63.65,63.65,0,0,1,7.65,12,85.71,85.71,0,0,1,5.45,13.78,87.36,87.36,0,0,0-1.11-15.16,69.7,69.7,0,0,0-4.11-15.21A46.2,46.2,0,0,0,235.41,53a38.57,38.57,0,0,0-5.39-7,37,37,0,0,0-7.41-5.82,38.17,38.17,0,0,0-9.11-3.69l-.68-.18a9.07,9.07,0,0,0-3-.28,9.28,9.28,0,0,0,1.22,18.52Zm-8.3,21.75.13,0,1.66-.5.85-.27.87-.15,1.79-.3,1.85-.07a23.58,23.58,0,0,1,7.78,1.29,35.23,35.23,0,0,1,7.77,3.78,40.25,40.25,0,0,1,7.06,5.74,42,42,0,0,0-4.43-8.39,41.34,41.34,0,0,0-6.53-7.5,33.19,33.19,0,0,0-9-5.77l-2.61-1c-.91-.26-1.82-.5-2.75-.75-.47-.11-.94-.25-1.41-.34l-1.42-.2-2.91-.37a8,8,0,0,0-3.17.27,7.63,7.63,0,0,0,4.44,14.61Zm62.33-2A72.4,72.4,0,0,0,269,89.49a69.38,69.38,0,0,1,4.37-29.34A84.23,84.23,0,0,1,288,35.73a9.52,9.52,0,0,0,1.43-2.34,9.23,9.23,0,0,0-17-7.21l-.07.16a98.51,98.51,0,0,0-7.92,32A77.47,77.47,0,0,0,265.11,74.37Zm19.52-13.89a70.27,70.27,0,0,0-4.11,15.21,87.35,87.35,0,0,0-1.1,15.16,83.89,83.89,0,0,1,5.45-13.78,63.15,63.15,0,0,1,7.65-12,32.4,32.4,0,0,1,9.75-8.3,18.38,18.38,0,0,1,10.42-2.14,9.62,9.62,0,0,0,3-.29,9.28,9.28,0,0,0-4.78-17.94l-.63.17a38,38,0,0,0-9.11,3.69,36.8,36.8,0,0,0-7.42,5.82,39,39,0,0,0-5.39,7A46.2,46.2,0,0,0,284.63,60.48ZM320.18,62c-.48.09-.95.23-1.41.34-.93.25-1.85.49-2.75.75l-2.61,1a32.88,32.88,0,0,0-9,5.77,41,41,0,0,0-6.53,7.5,42.52,42.52,0,0,0-4.44,8.39,40.31,40.31,0,0,1,7.07-5.74,34.94,34.94,0,0,1,7.76-3.78A23.6,23.6,0,0,1,316.09,75l1.84.07,1.79.3c.3,0,.58.09.87.15l.86.27,1.65.5.17.06a7.64,7.64,0,1,0,1.23-14.9l-2.9.37Zm-132.57,64.8c-2.67-1.08-6.4-.76-7.69,2.19a3.53,3.53,0,0,0,.86,4.24,2.61,2.61,0,0,0,3.88-.36.69.69,0,0,0-.78-1c-1.29.36-2.59-.71-1.89-2.09.91-1.82,3.48-1.58,5-.92a4.56,4.56,0,0,1,3,4.25c-.06,2-1.84,3.06-3.57,3.6a13.59,13.59,0,0,1-3.5.75,3.08,3.08,0,0,1-.73-.06,21,21,0,0,0-2-1.34l-.06-.12a.44.44,0,0,0-.59-.26,33.62,33.62,0,0,0-12.32-3.52c-5.82-.62-11.88-.58-17.46-2.57a20.16,20.16,0,0,1-6.39-3.7,14.61,14.61,0,0,1-4.37-6.08.33.33,0,0,0-.64.18,12.15,12.15,0,0,0,1.55,4.47,16.21,16.21,0,0,0,3.4,3.71,23.47,23.47,0,0,0,9.47,4.31c7.91,1.82,16.51.89,23.94,4.61,6.22,3.11,10.36,10.79,7.47,17.58-2.47,5.82-11.63,10.7-16.35,4.45-2-2.67-2.87-8.21,1.22-9.48,1.3-.4,3-.1,3.34,1.4a2.36,2.36,0,0,1-1.32,2.74c-1.78.78-.45,3.33,1.25,3,3.66-.75,4.66-5.57,2.71-8.38-2.41-3.47-7.76-2.84-10.32.1-3,3.46-2.4,8.88.14,12.41a11,11,0,0,0,11.82,4.16c8.59-2,13.45-11.16,11.1-19.46a15.32,15.32,0,0,0-3.78-6.55,20.29,20.29,0,0,0,2.14-.38c2.64-.58,5.37-2,5.81-4.95C192.47,130.62,190.4,128,187.61,126.84Zm-23.32-4.16a9.21,9.21,0,1,0,5.8-17.3,90.69,90.69,0,0,1-28.55-10.26A74,74,0,0,1,118.17,74a78.18,78.18,0,0,0,7.21,14.92,81.83,81.83,0,0,0,10.51,13.39,103.89,103.89,0,0,0,28.23,20.33ZM131.9,80.8A55.68,55.68,0,0,0,143,88.54a43.93,43.93,0,0,0,6.73,2.77,39.15,39.15,0,0,0,7.58,1.51l.7.07a8.38,8.38,0,1,0-1.37-16.44,22.51,22.51,0,0,1-4.57.72,30.43,30.43,0,0,1-5.08-.25,45,45,0,0,1-10.71-3,72.39,72.39,0,0,1-10.55-5.46,82.81,82.81,0,0,1-9.9-7.16A85.41,85.41,0,0,0,123,71.5,79.83,79.83,0,0,0,131.9,80.8Zm-5.82-20.61,1.15.58c.38.2.83.42,1.23.61a45.2,45.2,0,0,0,10.37,3.33,38.94,38.94,0,0,0,11.47.55,33.4,33.4,0,0,0,11.88-3.55l.52-.26A7.11,7.11,0,0,0,164.62,60a6.89,6.89,0,1,0-10.2-9.27,21.71,21.71,0,0,1-6.6,4.87,30.25,30.25,0,0,1-8.77,2.61,40.72,40.72,0,0,1-9.76.26c-.42,0-.79-.07-1.21-.16l-1.27-.23-2.54-.46-5.08-.93,4.6,2.35Zm63.71,48.25a4.39,4.39,0,1,0,4.38,4.39A4.39,4.39,0,0,0,189.79,108.44ZM177.56,86.81a4.38,4.38,0,1,0-4.38-4.38A4.38,4.38,0,0,0,177.56,86.81Zm2.2-38.28a4.38,4.38,0,1,0-4.39-4.38A4.38,4.38,0,0,0,179.76,48.53Zm34.17-24.16A4.39,4.39,0,1,0,209.54,20,4.38,4.38,0,0,0,213.93,24.37Zm47.44-9.67A4.39,4.39,0,1,0,257,10.32,4.38,4.38,0,0,0,261.37,14.7Zm48.56,8.77a4.39,4.39,0,1,0-4.38-4.39A4.38,4.38,0,0,0,309.93,23.47Zm35,13.33a4.39,4.39,0,1,0,4.39,4.39A4.38,4.38,0,0,0,344.91,36.8ZM242.68,127.33a2.38,2.38,0,1,0,2.37,2.37A2.37,2.37,0,0,0,242.68,127.33Zm43.88,0a2.38,2.38,0,1,0,2.37,2.37A2.38,2.38,0,0,0,286.56,127.33Zm4.38-9a2,2,0,1,0,2,2A2,2,0,0,0,290.94,118.33ZM248.79,135a3.43,3.43,0,1,0,3.43,3.42A3.42,3.42,0,0,0,248.79,135Zm30.51,0a3.43,3.43,0,1,0,3.42,3.42A3.43,3.43,0,0,0,279.3,135ZM146.51,169.81a.05.05,0,1,0,0-.1A.05.05,0,1,0,146.51,169.81ZM141,181.66a.15.15,0,0,0,0,.29A.15.15,0,0,0,141,181.66Zm-.27.2c.06,0,.06-.11,0-.11A.06.06,0,0,0,140.77,181.86Zm92.93-13.13c-2.61.2-4.2,3.23-4.89,5.45a13.6,13.6,0,0,0-.1,7.51.78.78,0,0,0,1.51-.42,10,10,0,0,1,.44-6.18,9.32,9.32,0,0,1,1.4-2.43,9.83,9.83,0,0,1,2.24-1.72C235.19,170.33,235,168.64,233.7,168.73Zm7.85,0c-2.61.2-4.21,3.23-4.89,5.45a13.6,13.6,0,0,0-.11,7.51.79.79,0,0,0,1.52-.42,10,10,0,0,1,.43-6.18,9.08,9.08,0,0,1,1.41-2.43,9.56,9.56,0,0,1,2.23-1.72C243,170.33,242.81,168.64,241.55,168.73Z" fill="#ffc120"/></g><g id="change1_2"><path d="M103.88,20.56a1.7,1.7,0,0,0-1.24.56,2.31,2.31,0,0,0-.25,1.12,44,44,0,0,1-.92,8.68,24.43,24.43,0,0,1-4.82,9.43L85.81,20.88l27.75-14C113.88,13.3,109.43,19.61,103.88,20.56Zm-88.52,0a1.7,1.7,0,0,1,1.24.56,2.2,2.2,0,0,1,.24,1.12,44.79,44.79,0,0,0,.93,8.68,22.75,22.75,0,0,0,2.76,6.5l10-18L5.68,6.84C5.35,13.3,9.81,19.61,15.36,20.56ZM51.55,35c.44,1.07,2.42,1.12,2.27-.31-.57-5.1-.68-10.24-2.22-15.18a25.46,25.46,0,0,0-2.67-5.92l-.06-.09h-15l-.51.92C41.74,18.81,47.88,26.22,51.55,35Zm2.53-18.42a34.5,34.5,0,0,1,3.4,7.09.61.61,0,0,0,1.16,0,30.6,30.6,0,0,1,5.65-10.17H51.49A12.34,12.34,0,0,1,54.08,16.56ZM71.7,53.92a4,4,0,0,0-1.84-.74L64.56,39v0a.54.54,0,0,0-1,.32l3.57,14.5c-2.34,1.28-4.4,4.13-5.74,5.84-.43.55-.85,1.13-1.24,1.73-.43,0-.87-.07-1.32-.07a14.25,14.25,0,0,0-2.29.19,22.12,22.12,0,0,0-1.32-1.85c-1.34-1.71-3.4-4.56-5.74-5.84L53,39.27a.55.55,0,0,0-.34-.64A.54.54,0,0,0,52,39h0L46.93,53.15a3.92,3.92,0,0,0-2.07.77,8.48,8.48,0,0,0-3.17,5.5c-.44,3,0,7.06,2.15,9.39a7.64,7.64,0,0,0,3.88,2.11l.55.11c.17,0,.35,0,.53.08,1.3,3.12,5.28,5.4,10,5.4s8.84-2.37,10.06-5.6a7.58,7.58,0,0,0,3.85-2.1c2.14-2.33,2.59-6.39,2.15-9.39A8.51,8.51,0,0,0,71.7,53.92Zm9-40.44H67a25.47,25.47,0,0,0-2.73,6c-1.54,4.94-1.66,10.08-2.22,15.18-.15,1.42,1.82,1.39,2.27.31A40.43,40.43,0,0,1,82.29,14.55l-.6-1.07Z" fill="#db2828"/></g><g id="change1_3"><path d="M483.42,158.48a105.47,105.47,0,0,1-43,15.78,87.48,87.48,0,0,1-23.75-.11,73.66,73.66,0,0,1-23.1-7.32,71.39,71.39,0,0,1-19.39-14.64,83.72,83.72,0,0,1-13.61-19.55,104.13,104.13,0,0,1-8-21.81A110.84,110.84,0,0,1,349.3,88.2c5.89,14,11.91,27.51,20,39.32s18,21.68,30.15,27.87,26,8.84,40.3,8.81a154.91,154.91,0,0,0,21.67-1.63c3.64-.5,7.29-1.13,11-1.83S479.67,159.17,483.42,158.48Zm-61.65-18.69a72.91,72.91,0,0,1-24.32-9.1,61.42,61.42,0,0,1-10.29-7.76c-1.67-1.4-3.08-3.06-4.65-4.59l-2.15-2.51-1.09-1.25-1-1.33c-5.5-7-10.05-15-14.61-23.39a66.83,66.83,0,0,0,8.28,27.57l.9,1.62,1,1.56c.68,1,1.37,2.07,2.08,3.09a62.57,62.57,0,0,0,4.82,5.74,61,61,0,0,0,5.51,5.15l3,2.27c1,.74,2.11,1.38,3.17,2.07a59.11,59.11,0,0,0,28.49,8.37,61.17,61.17,0,0,0,28.26-5.56A130.94,130.94,0,0,1,421.77,139.79Zm-280,41.48a10,10,0,0,1,.43-6.18,9.35,9.35,0,0,1,1.41-2.43,9.61,9.61,0,0,1,2.24-1.72c.88-.61.66-2.3-.6-2.21-2.61.2-4.21,3.23-4.89,5.45a13.6,13.6,0,0,0-.11,7.51.79.79,0,0,0,1.52-.42Zm7.84,0a9.91,9.91,0,0,1,.44-6.18,9.32,9.32,0,0,1,1.4-2.43,9.83,9.83,0,0,1,2.24-1.72c.89-.61.66-2.3-.6-2.21-2.61.2-4.2,3.23-4.89,5.45a13.6,13.6,0,0,0-.1,7.51.78.78,0,0,0,1.51-.42ZM56.9,163.52a10,10,0,0,1,.43-6.18A7.26,7.26,0,0,1,61,153.19c.88-.6.66-2.3-.6-2.2-2.61.19-4.21,3.22-4.89,5.44a13.51,13.51,0,0,0-.1,7.51.78.78,0,0,0,1.51-.42Zm7.84,0a10,10,0,0,1,.44-6.18,9.49,9.49,0,0,1,1.4-2.43,9.83,9.83,0,0,1,2.24-1.72c.89-.6.66-2.3-.6-2.2-2.61.19-4.2,3.22-4.89,5.44a13.6,13.6,0,0,0-.1,7.51.78.78,0,0,0,1.51-.42ZM299,157.71a10,10,0,0,1,.44-6.18,9.18,9.18,0,0,1,1.41-2.42,9.56,9.56,0,0,1,2.23-1.72c.89-.61.66-2.3-.6-2.21-2.61.2-4.2,3.23-4.89,5.45a13.56,13.56,0,0,0-.1,7.5.78.78,0,0,0,1.51-.42Zm7.85,0a10,10,0,0,1,.43-6.18,9.18,9.18,0,0,1,1.41-2.42,9.56,9.56,0,0,1,2.23-1.72c.89-.61.67-2.3-.59-2.21-2.61.2-4.21,3.23-4.89,5.45a13.57,13.57,0,0,0-.11,7.5.79.79,0,0,0,1.52-.42Z" fill="#db2828"/></g><g id="change2_4"><path d="M50.59,64.5a1,1,0,0,1,0,2A1,1,0,0,1,50.59,64.5Zm-1.73-2.39a.51.51,0,0,0,.16-.25.6.6,0,0,0,.07-.3l0-.2a.77.77,0,0,0-.2-.35l-.16-.12a.76.76,0,0,0-.39-.1.65.65,0,0,0-.3.06.78.78,0,0,0-.24.16.56.56,0,0,0-.16.25.55.55,0,0,0-.07.3l0,.21a.7.7,0,0,0,.2.34l.15.12a.77.77,0,0,0,.39.11.6.6,0,0,0,.3-.07A.51.51,0,0,0,48.86,62.11Zm-.61,2.48a1.08,1.08,0,0,0-1.88,0l0,0a1.16,1.16,0,0,0-.15.57,1.1,1.1,0,0,0,.15.57,1.13,1.13,0,0,0,2,0,1.1,1.1,0,0,0,.15-.57,1.16,1.16,0,0,0-.15-.57ZM44.34,54a5.16,5.16,0,0,0,5.16-5.15c0-.18,0-.35,0-.53L51.1,41.7a.53.53,0,0,0-.93-.45l-.09.12-2.59,3.41a5.08,5.08,0,0,0-3.15-1.1,5.16,5.16,0,0,0,0,10.31ZM66,66.47a1,1,0,0,0,0-2A1,1,0,0,0,66,66.47Zm2.71-.28a1.16,1.16,0,0,0,.57.15,1.1,1.1,0,0,0,.57-.15,1.15,1.15,0,0,0,.41-.41,1.1,1.1,0,0,0,.15-.57,1.16,1.16,0,0,0-.15-.57l0,0a1,1,0,0,0-.39-.4,1.15,1.15,0,0,0-.55-.14,1.18,1.18,0,0,0-.55.14,1.15,1.15,0,0,0-.39.4l0,0a1.07,1.07,0,0,0-.16.57,1,1,0,0,0,.16.57A1.12,1.12,0,0,0,68.67,66.19Zm.12-4.08a.82.82,0,0,0,.22-.55l0-.2a.87.87,0,0,0-.2-.35l-.16-.12a.76.76,0,0,0-.39-.1.6.6,0,0,0-.3.06.72.72,0,0,0-.25.16.67.67,0,0,0-.16.25.66.66,0,0,0-.07.3l0,.21a.79.79,0,0,0,.2.34l.16.12a.77.77,0,0,0,.39.11.63.63,0,0,0,.3-.07A.56.56,0,0,0,68.79,62.11Zm-23-1.1a81.42,81.42,0,0,0-9.32-3.65,83.47,83.47,0,0,0-9.66-2.64,83.37,83.37,0,0,0,9.32,3.66A81.48,81.48,0,0,0,45.76,61ZM35,62.71a22.86,22.86,0,0,0,5.1,1.08,22.69,22.69,0,0,0,5.21,0,22.09,22.09,0,0,0-5.1-1.08A22.69,22.69,0,0,0,35,62.71ZM70.79,61a81.48,81.48,0,0,0,9.66-2.63,83.37,83.37,0,0,0,9.32-3.66,83.47,83.47,0,0,0-9.66,2.64A81.42,81.42,0,0,0,70.79,61Zm5.67,2.78a22.74,22.74,0,0,0,5.1-1.08,22.69,22.69,0,0,0-5.21,0,22.09,22.09,0,0,0-5.1,1.08A22.69,22.69,0,0,0,76.46,63.79Zm-2.11,2.45a7.46,7.46,0,0,0,.28-.88l-.2-.06c-.25.31-.49.61-.74.9a19.88,19.88,0,0,0-2.44,0,16.6,16.6,0,0,0,1.88.63,7.6,7.6,0,0,1-.58.56,6.61,6.61,0,0,1-2,1.22,10,10,0,0,1-2.27.55,10.44,10.44,0,0,1-2.37.1A11.15,11.15,0,0,1,63.55,69a13.57,13.57,0,0,1-2.32-.73,3.33,3.33,0,0,1-1.64-1.18c-.06-.08-.1-.18-.15-.26l5.83-5.17a2.35,2.35,0,0,0,.7-1.17,1.05,1.05,0,0,0,.19-.75l0-.19-.84-6.46a.53.53,0,0,0-.5-.46.54.54,0,0,0-.56.51v.09l-.14,3.26a8.21,8.21,0,0,0-11.65.06l-.14-3.32V53.1a.53.53,0,0,0-.47-.5.52.52,0,0,0-.59.45l-.84,6.46,0,.19a1.15,1.15,0,0,0,0,.19,1.12,1.12,0,0,0,.36.76,2.5,2.5,0,0,0,.7,1.08l5.69,5a2.54,2.54,0,0,1-.16.28,3.35,3.35,0,0,1-1.65,1.18A13.75,13.75,0,0,1,53,69a10.55,10.55,0,0,1-2.37.31,10.44,10.44,0,0,1-2.37-.11A9.83,9.83,0,0,1,46,68.61a6,6,0,0,1-2-1.22,5.94,5.94,0,0,1-.58-.55,16.44,16.44,0,0,0,1.87-.63,19.87,19.87,0,0,0-2.44,0l-.73-.9-.21.06c.08.29.17.59.28.88-.78.07-1.55.16-2.32.27a24.42,24.42,0,0,0-5.25,1.35,25.08,25.08,0,0,0,5.42-.29c.83-.14,1.67-.3,2.5-.49a6.78,6.78,0,0,0,2.58,3,10.2,10.2,0,0,0,5.61,1.35,11.27,11.27,0,0,0,5.49-1.76A4.08,4.08,0,0,0,58,67.53l.3.27.28-.25a4.11,4.11,0,0,0,1.75,2.1,11.28,11.28,0,0,0,5.5,1.76,10.17,10.17,0,0,0,5.6-1.35,6.78,6.78,0,0,0,2.58-3c.83.19,1.67.35,2.5.49a25.12,25.12,0,0,0,5.42.29,24.42,24.42,0,0,0-5.25-1.35C75.9,66.4,75.13,66.31,74.35,66.24ZM67.11,48.31a4.78,4.78,0,0,0-.06.53,5.16,5.16,0,1,0,5.16-5.16,5.1,5.1,0,0,0-3.15,1.1l-2.59-3.41-.09-.12a.54.54,0,0,0-.55-.19.53.53,0,0,0-.38.64Zm-40-24.85c-.09-.1-.18-.19-.26-.29a3.16,3.16,0,0,0-1.32-.85A3.18,3.18,0,0,0,23.91,22a3.2,3.2,0,0,0-1.59.35,3.23,3.23,0,0,0-1.32.85c-.21.28-.42.56-.64.83a4.07,4.07,0,0,0-.56,2.07L20,27.16A4.08,4.08,0,0,0,21,29l.29.25a3.1,3.1,0,0,0,1.32.85,3.12,3.12,0,0,0,1.57.35l.25,0,3.33-6A4.24,4.24,0,0,0,27.07,23.46ZM13.89,13.1l-.42-.33a2.08,2.08,0,0,0-1.06-.28,1.42,1.42,0,0,0-.81.18,1.46,1.46,0,0,0-.67.43,1.55,1.55,0,0,0-.43.67,1.61,1.61,0,0,0-.18.81l.07.56a2.1,2.1,0,0,0,.54.92l.42.33a2.08,2.08,0,0,0,1.06.28,1.61,1.61,0,0,0,.81-.18,1.87,1.87,0,0,0,1.1-1.1,1.61,1.61,0,0,0,.18-.81L14.43,14A2.1,2.1,0,0,0,13.89,13.1Zm95,.92a2.1,2.1,0,0,0-.54-.92l-.42-.33a2.08,2.08,0,0,0-1.06-.28,1.42,1.42,0,0,0-.81.18,1.87,1.87,0,0,0-1.1,1.1,1.52,1.52,0,0,0-.19.81l.08.56a2.1,2.1,0,0,0,.54.92l.42.33a2.08,2.08,0,0,0,1.06.28,2.32,2.32,0,0,0,1.48-.61,1.55,1.55,0,0,0,.43-.67,1.61,1.61,0,0,0,.18-.81ZM98.24,23.17l-.84-.64A4.07,4.07,0,0,0,95.33,22l-1.09.15a4,4,0,0,0-1.81,1.05c-.08.1-.17.19-.26.29a3,3,0,0,0-.84,1.31A3.08,3.08,0,0,0,91,26.35a3,3,0,0,0,.35,1.57,3,3,0,0,0,.84,1.31l.83.64a4,4,0,0,0,2.06.56l1.09-.15A4,4,0,0,0,98,29.23l.29-.25a3.08,3.08,0,0,0,.84-1.33,3,3,0,0,0,.36-1.58,3.09,3.09,0,0,0-.36-1.58A3,3,0,0,0,98.24,23.17Z" fill="inherit"/></g></g></g></svg>